<svg width="106" height="106" viewBox="0 0 106 106" fill="none" xmlns="http://www.w3.org/2000/svg">
<path d="M105.31 52.6551C105.31 81.7358 81.7358 105.31 52.6551 105.31C23.5745 105.31 0 81.7358 0 52.6551C0 23.5745 23.5745 0 52.6551 0C81.7358 0 105.31 23.5745 105.31 52.6551Z" fill="#1D265D"/>
<path d="M41.6987 55.3052C39.9925 56.4306 37.6972 55.9597 36.5718 54.2536C35.4465 52.5474 35.9173 50.2521 37.6235 49.1267L50.3442 40.7365C52.0503 39.6111 54.3457 40.082 55.4711 41.7881C56.5964 43.4943 56.1255 45.7897 54.4194 46.915L41.6987 55.3052Z" fill="#FF7BFF"/>
<path d="M63.9785 55.3052C65.6847 56.4306 67.98 55.9597 69.1054 54.2536C70.2307 52.5474 69.7599 50.2521 68.0537 49.1267L55.333 40.7365C53.6269 39.6111 51.3315 40.082 50.2062 41.7881C49.0808 43.4943 49.5517 45.7897 51.2578 46.915L63.9785 55.3052Z" fill="#FF7BFF"/>
<path d="M49.1587 38.6989H56.9497L58.8974 65.9674L47.2109 65.9674L49.1587 38.6989Z" fill="#00ACFF"/>
<path d="M44.6817 79.8835C43.5094 81.5578 41.2018 81.9646 39.5276 80.7923C37.8534 79.62 37.4465 77.3125 38.6188 75.6382L47.3593 63.1556C48.5316 61.4813 50.8391 61.0745 52.5134 62.2468C54.1876 63.4191 54.5945 65.7266 53.4222 67.4009L44.6817 79.8835Z" fill="#00ACFF"/>
<path d="M60.994 79.8835C62.1663 81.5578 64.4739 81.9646 66.1481 80.7923C67.8224 79.62 68.2292 77.3125 67.0569 75.6382L58.3165 63.1556C57.1442 61.4813 54.8366 61.0745 53.1624 62.2468C51.4882 63.4191 51.0813 65.7266 52.2536 67.4009L60.994 79.8835Z" fill="#00ACFF"/>
<path d="M61.8022 31.8818C61.8022 36.7225 57.878 40.6466 53.0373 40.6466C48.1966 40.6466 44.2725 36.7225 44.2725 31.8818C44.2725 27.041 48.1966 23.1169 53.0373 23.1169C57.878 23.1169 61.8022 27.041 61.8022 31.8818Z" fill="#FFBA00"/>
</svg>
