<svg width="531" height="153" viewBox="0 0 531 153" fill="none" xmlns="http://www.w3.org/2000/svg">
<rect width="531" height="153" fill="black"/>
<path d="M126.31 70.6551C126.31 99.7358 102.736 123.31 73.6551 123.31C44.5745 123.31 21 99.7358 21 70.6551C21 41.5745 44.5745 18 73.6551 18C102.736 18 126.31 41.5745 126.31 70.6551Z" fill="#1D265D"/>
<path d="M125.81 70.6551C125.81 99.4596 102.46 122.81 73.6551 122.81C44.8506 122.81 21.5 99.4596 21.5 70.6551C21.5 41.8506 44.8506 18.5 73.6551 18.5C102.46 18.5 125.81 41.8506 125.81 70.6551Z" stroke="#E5E5E5" stroke-opacity="0.2"/>
<path d="M62.6987 73.3052C60.9925 74.4306 58.6972 73.9597 57.5718 72.2536C56.4465 70.5474 56.9173 68.2521 58.6235 67.1267L71.3442 58.7365C73.0503 57.6111 75.3457 58.082 76.4711 59.7881C77.5964 61.4943 77.1255 63.7897 75.4194 64.915L62.6987 73.3052Z" fill="#FF7BFF"/>
<path d="M84.9785 73.3052C86.6847 74.4306 88.98 73.9597 90.1054 72.2536C91.2307 70.5474 90.7599 68.2521 89.0537 67.1267L76.333 58.7365C74.6269 57.6111 72.3315 58.082 71.2062 59.7881C70.0808 61.4943 70.5517 63.7897 72.2578 64.915L84.9785 73.3052Z" fill="#FF7BFF"/>
<path d="M70.1587 56.6989H77.9497L79.8974 83.9674L68.2109 83.9674L70.1587 56.6989Z" fill="#00ACFF"/>
<path d="M65.6817 97.8836C64.5094 99.5578 62.2018 99.9647 60.5276 98.7924C58.8534 97.6201 58.4465 95.3125 59.6188 93.6383L68.3593 81.1556C69.5316 79.4814 71.8391 79.0745 73.5134 80.2468C75.1876 81.4191 75.5945 83.7267 74.4222 85.4009L65.6817 97.8836Z" fill="#00ACFF"/>
<path d="M81.994 97.8836C83.1663 99.5578 85.4739 99.9647 87.1481 98.7924C88.8224 97.6201 89.2292 95.3125 88.0569 93.6383L79.3165 81.1556C78.1442 79.4814 75.8366 79.0745 74.1624 80.2468C72.4882 81.4191 72.0813 83.7267 73.2536 85.4009L81.994 97.8836Z" fill="#00ACFF"/>
<path d="M82.8022 49.8818C82.8022 54.7225 78.878 58.6466 74.0373 58.6466C69.1966 58.6466 65.2725 54.7225 65.2725 49.8818C65.2725 45.041 69.1966 41.1169 74.0373 41.1169C78.878 41.1169 82.8022 45.041 82.8022 49.8818Z" fill="#FFBA00"/>
<path d="M446.172 105.904C440.87 105.904 437.668 105.904 437.368 99.8014C437.168 95.3996 439.169 94.5992 442.27 92.8985C445.972 90.9977 446.972 88.7968 446.972 82.9943V55.7829C446.972 51.7812 446.572 50.0805 443.471 48.6799C439.769 47.1793 438.069 46.7791 438.069 42.3773C438.069 36.1747 440.069 35.4744 446.572 35.3744H476.685C490.891 35.3744 500.495 40.9767 500.495 52.6816C500.495 57.3836 498.594 61.2852 494.692 64.1864C491.591 66.4874 489.99 65.7871 489.99 67.1877C489.99 68.8884 492.591 68.1881 496.493 70.5891C500.495 72.9901 502.996 77.7922 502.996 85.4954C503.196 98.1007 495.293 105.904 477.985 105.904H446.172ZM472.583 65.0868C481.487 65.0868 483.888 62.8859 483.888 57.2836C483.888 51.081 480.186 46.7791 470.582 46.7791C460.478 46.7791 461.979 46.2789 461.979 56.6833C461.979 66.2873 460.878 65.1869 472.583 65.0868ZM472.183 95.1995C480.887 95.1995 485.288 94.3991 485.288 86.2957C485.288 78.8926 480.686 74.4908 470.682 74.4908C460.478 74.5908 461.979 74.4908 461.979 84.8951C461.979 95.4996 460.578 95.1995 472.183 95.1995Z" fill="#FFFAF6"/>
<path d="M405.183 107.705C386.775 107.705 377.871 95.5996 377.871 79.2928C377.871 63.086 387.975 50.4807 405.583 50.5807C423.59 50.6808 432.594 63.086 432.594 79.2928C432.594 95.6997 422.39 107.705 405.183 107.705ZM407.984 94.4992C414.787 93.7989 418.188 88.4966 416.988 79.6929C415.587 69.6887 411.285 62.7859 403.082 63.4861C396.179 64.0864 392.477 70.0889 393.778 79.3928C394.978 88.5967 399.98 95.1995 407.984 94.4992Z" fill="#FFFAF6"/>
<path d="M341.805 107.505C330.8 107.505 321.696 103.903 315.594 97.5005C309.491 91.1978 306.09 82.3941 306.09 71.5896C306.09 59.7846 309.991 50.2806 316.494 43.6779C322.397 37.6753 330.5 34.374 339.704 34.374C346.807 34.374 351.109 36.5749 354.31 39.6762C355.611 40.7767 356.311 41.3769 357.411 41.3769C359.612 41.3769 356.811 35.1743 363.714 35.1743C367.316 35.1743 368.116 37.6753 371.417 45.2785C373.518 49.8805 374.419 53.0818 374.419 55.6829C374.419 59.5845 372.518 61.5854 369.316 62.5858C361.613 64.8868 359.212 62.1856 353.81 55.4828C349.808 50.7809 344.406 47.8796 339.004 47.8796C334.402 47.8796 330.2 49.6804 327.599 52.3815C324.297 55.883 322.697 60.785 322.697 65.8872C322.697 72.9902 325.398 80.1932 330.4 85.0953C334.302 88.9969 339.604 91.3979 347.107 91.3979C353.01 91.3979 358.212 89.7972 362.614 87.8964C365.515 86.5959 367.516 84.9952 369.316 86.3958C370.817 87.4963 370.817 89.5971 369.917 91.698C366.515 99.4013 359.412 107.505 341.805 107.505Z" fill="#FFFAF6"/>
<path d="M240.168 106.804C231.664 106.704 228.062 106.704 228.062 100.402C228.062 96.2999 229.363 95.6997 232.164 93.4987C234.765 91.598 235.566 89.9973 237.767 84.2949C242.068 73.2903 246.07 62.8859 248.971 55.1827C250.772 50.1806 250.572 48.88 247.671 47.9796C244.569 47.0793 242.369 46.379 242.369 41.9771C242.369 34.6741 247.171 35.4744 261.376 35.4744C284.086 35.4744 279.184 34.8741 283.786 49.9805C286.787 59.5845 290.689 70.9893 294.59 83.8947C296.491 90.2974 296.891 91.598 299.693 93.2987C302.494 95.0994 303.594 96.4 303.594 99.5013C303.394 106.504 301.293 106.604 286.587 106.604C273.081 106.704 269.88 107.104 269.88 100.602C269.88 98.0006 271.081 96.8001 273.982 95.2995C276.983 93.999 277.383 93.3987 276.483 90.1974C275.983 88.6967 275.582 87.0961 275.182 85.8956C273.682 81.2936 272.981 82.3941 262.577 82.3941C252.473 82.3941 252.073 81.5938 250.472 86.1957C249.972 87.5963 249.471 89.1969 248.871 90.7976C247.771 93.999 248.271 94.7993 250.772 95.9998C252.573 97.2003 254.374 97.6005 254.374 100.802C254.374 106.704 251.872 106.804 240.168 106.804ZM263.277 73.3903C272.881 73.3903 273.382 73.9906 271.381 67.6879C269.88 63.086 267.779 55.7829 266.879 52.7817C265.978 49.2802 265.778 47.7796 263.777 47.7796C262.177 47.7796 261.977 49.2802 260.776 52.4815C259.376 56.6833 257.275 62.7859 255.574 67.6879C253.173 74.3907 253.473 73.3903 263.277 73.3903Z" fill="#FFFAF6"/>
<path d="M191.011 107.805C175.505 107.805 164.2 99.0011 164.2 83.7947C164.2 74.5908 169.002 68.0881 177.306 68.0881C183.108 68.0881 187.01 71.2894 187.01 77.7922C187.01 83.5946 182.408 84.495 182.408 88.3966C182.408 92.0982 186.309 94.099 192.512 94.099C200.315 94.099 203.717 91.0977 203.717 80.1932C203.717 73.0902 203.217 63.4861 202.816 57.2835C202.516 52.2814 202.716 49.5803 199.015 48.88C192.012 47.3794 190.911 46.479 190.911 41.3769C190.911 35.7745 194.513 35.2743 210.92 35.2743C224.225 35.2743 227.627 35.5744 227.627 41.3769C227.627 45.5786 226.026 46.6791 223.225 48.3798C220.724 49.6804 219.723 50.4807 219.723 56.5833C219.623 63.186 220.524 74.2907 220.524 80.3932C220.524 96.9002 209.419 107.805 191.011 107.805Z" fill="#FFFAF6"/>
</svg>
