<svg width="482" height="106" viewBox="0 0 482 106" fill="none" xmlns="http://www.w3.org/2000/svg">
<path d="M105.31 52.6551C105.31 81.7358 81.7358 105.31 52.6551 105.31C23.5745 105.31 0 81.7358 0 52.6551C0 23.5745 23.5745 0 52.6551 0C81.7358 0 105.31 23.5745 105.31 52.6551Z" fill="#1D265D"/>
<path d="M41.6987 55.3052C39.9925 56.4306 37.6972 55.9597 36.5718 54.2536C35.4465 52.5474 35.9173 50.2521 37.6235 49.1267L50.3442 40.7365C52.0503 39.6111 54.3457 40.082 55.4711 41.7881C56.5964 43.4943 56.1255 45.7897 54.4194 46.915L41.6987 55.3052Z" fill="#FF7BFF"/>
<path d="M63.9785 55.3052C65.6847 56.4306 67.98 55.9597 69.1054 54.2536C70.2307 52.5474 69.7599 50.2521 68.0537 49.1267L55.333 40.7365C53.6269 39.6111 51.3315 40.082 50.2062 41.7881C49.0808 43.4943 49.5517 45.7897 51.2578 46.915L63.9785 55.3052Z" fill="#FF7BFF"/>
<path d="M49.1587 38.6989H56.9497L58.8974 65.9674L47.2109 65.9674L49.1587 38.6989Z" fill="#00ACFF"/>
<path d="M44.6817 79.8835C43.5094 81.5578 41.2018 81.9646 39.5276 80.7923C37.8534 79.62 37.4465 77.3125 38.6188 75.6382L47.3593 63.1556C48.5316 61.4813 50.8391 61.0745 52.5134 62.2468C54.1876 63.4191 54.5945 65.7266 53.4222 67.4009L44.6817 79.8835Z" fill="#00ACFF"/>
<path d="M60.994 79.8835C62.1663 81.5578 64.4739 81.9646 66.1481 80.7923C67.8224 79.62 68.2292 77.3125 67.0569 75.6382L58.3165 63.1556C57.1442 61.4813 54.8366 61.0745 53.1624 62.2468C51.4882 63.4191 51.0813 65.7266 52.2536 67.4009L60.994 79.8835Z" fill="#00ACFF"/>
<path d="M61.8022 31.8818C61.8022 36.7225 57.878 40.6466 53.0373 40.6466C48.1966 40.6466 44.2725 36.7225 44.2725 31.8818C44.2725 27.041 48.1966 23.1169 53.0373 23.1169C57.878 23.1169 61.8022 27.041 61.8022 31.8818Z" fill="#FFBA00"/>
<path d="M425.172 87.904C419.87 87.904 416.668 87.904 416.368 81.8014C416.168 77.3996 418.169 76.5992 421.27 74.8985C424.972 72.9977 425.972 70.7968 425.972 64.9944V37.7829C425.972 33.7813 425.572 32.0805 422.471 30.68C418.769 29.1793 417.069 28.7792 417.069 24.3773C417.069 18.1747 419.069 17.4744 425.572 17.3744H455.685C469.891 17.3744 479.495 22.9767 479.495 34.6816C479.495 39.3836 477.594 43.2852 473.692 46.1865C470.591 48.4874 468.99 47.7871 468.99 49.1877C468.99 50.8884 471.591 50.1881 475.493 52.5891C479.495 54.9902 481.996 59.7922 481.996 67.4954C482.196 80.1007 474.293 87.904 456.985 87.904H425.172ZM451.583 47.0868C460.487 47.0868 462.888 44.8859 462.888 39.2836C462.888 33.081 459.186 28.7792 449.582 28.7792C439.478 28.7792 440.979 28.2789 440.979 38.6833C440.979 48.2873 439.878 47.1869 451.583 47.0868ZM451.183 77.1995C459.887 77.1995 464.288 76.3991 464.288 68.2957C464.288 60.8926 459.686 56.4908 449.682 56.4908C439.478 56.5908 440.979 56.4908 440.979 66.8951C440.979 77.4996 439.578 77.1995 451.183 77.1995Z" fill="#1D265D"/>
<path d="M384.183 89.7047C365.775 89.7047 356.871 77.5996 356.871 61.2928C356.871 45.086 366.975 32.4807 384.583 32.5808C402.59 32.6808 411.594 45.086 411.594 61.2928C411.594 77.6997 401.39 89.7047 384.183 89.7047ZM386.984 76.4992C393.787 75.7989 397.188 70.4967 395.988 61.693C394.587 51.6888 390.285 44.7859 382.082 45.4862C375.179 46.0864 371.477 52.0889 372.778 61.3928C373.978 70.5967 378.98 77.1995 386.984 76.4992Z" fill="#1D265D"/>
<path d="M320.805 89.5047C309.8 89.5047 300.696 85.9031 294.594 79.5005C288.491 73.1978 285.09 64.3941 285.09 53.5896C285.09 41.7846 288.991 32.2806 295.494 25.6779C301.397 19.6753 309.5 16.374 318.704 16.374C325.807 16.374 330.109 18.5749 333.31 21.6762C334.611 22.7767 335.311 23.3769 336.411 23.3769C338.612 23.3769 335.811 17.1743 342.714 17.1743C346.316 17.1743 347.116 19.6753 350.417 27.2785C352.518 31.8805 353.419 35.0818 353.419 37.6829C353.419 41.5845 351.518 43.5854 348.316 44.5858C340.613 46.8868 338.212 44.1856 332.81 37.4828C328.808 32.7809 323.406 29.8796 318.004 29.8796C313.402 29.8796 309.2 31.6804 306.599 34.3815C303.297 37.883 301.697 42.785 301.697 47.8872C301.697 54.9902 304.398 62.1932 309.4 67.0953C313.302 70.9969 318.604 73.3979 326.107 73.3979C332.01 73.3979 337.212 71.7972 341.614 69.8964C344.515 68.5959 346.516 66.9952 348.316 68.3958C349.817 69.4963 349.817 71.5971 348.917 73.698C345.515 81.4013 338.412 89.5047 320.805 89.5047Z" fill="#1D265D"/>
<path d="M219.168 88.8043C210.664 88.7043 207.062 88.7043 207.062 82.4017C207.062 78.2999 208.363 77.6997 211.164 75.4988C213.765 73.598 214.566 71.9973 216.767 66.2949C221.068 55.2903 225.07 44.8859 227.971 37.1827C229.772 32.1806 229.572 30.88 226.671 29.9797C223.569 29.0793 221.369 28.379 221.369 23.9771C221.369 16.6741 226.171 17.4744 240.376 17.4744C263.086 17.4744 258.184 16.8742 262.786 31.9805C265.787 41.5845 269.689 52.9893 273.59 65.8947C275.491 72.2974 275.891 73.598 278.693 75.2987C281.494 77.0994 282.594 78.4 282.594 81.5013C282.394 88.5042 280.293 88.6043 265.587 88.6043C252.081 88.7043 248.88 89.1045 248.88 82.6017C248.88 80.0007 250.081 78.8001 252.982 77.2995C255.983 75.999 256.383 75.3987 255.483 72.1974C254.983 70.6967 254.582 69.0961 254.182 67.8956C252.682 63.2936 251.981 64.3941 241.577 64.3941C231.473 64.3941 231.073 63.5938 229.472 68.1957C228.972 69.5963 228.471 71.197 227.871 72.7976C226.771 75.999 227.271 76.7993 229.772 77.9998C231.573 79.2003 233.374 79.6005 233.374 82.8018C233.374 88.7043 230.872 88.8043 219.168 88.8043ZM242.277 55.3903C251.881 55.3903 252.382 55.9906 250.381 49.6879C248.88 45.086 246.779 37.7829 245.879 34.7817C244.978 31.2802 244.778 29.7796 242.777 29.7796C241.177 29.7796 240.977 31.2802 239.776 34.4815C238.376 38.6833 236.275 44.7859 234.574 49.6879C232.173 56.3907 232.473 55.3903 242.277 55.3903Z" fill="#1D265D"/>
<path d="M170.011 89.8048C154.505 89.8048 143.2 81.0011 143.2 65.7947C143.2 56.5908 148.002 50.0881 156.306 50.0881C162.108 50.0881 166.01 53.2894 166.01 59.7922C166.01 65.5946 161.408 66.495 161.408 70.3966C161.408 74.0982 165.309 76.099 171.512 76.099C179.315 76.099 182.717 73.0978 182.717 62.1932C182.717 55.0902 182.217 45.4862 181.816 39.2836C181.516 34.2815 181.716 31.5803 178.015 30.88C171.012 29.3794 169.911 28.479 169.911 23.3769C169.911 17.7745 173.513 17.2743 189.92 17.2743C203.225 17.2743 206.627 17.5745 206.627 23.3769C206.627 27.5786 205.026 28.6791 202.225 30.3798C199.724 31.6804 198.723 32.4807 198.723 38.5833C198.623 45.186 199.524 56.2907 199.524 62.3933C199.524 78.9002 188.419 89.8048 170.011 89.8048Z" fill="#1D265D"/>
</svg>
